<?xml version="1.0" encoding="utf-8"?>
<!-- Generator: Adobe Illustrator 25.0.1, SVG Export Plug-In . SVG Version: 6.00 Build 0)  -->
<svg version="1.0" id="Layer_1" xmlns="http://www.w3.org/2000/svg" xmlns:xlink="http://www.w3.org/1999/xlink" x="0px" y="0px"
	 viewBox="0 0 885 604.7" style="enable-background:new 0 0 885 604.7;" xml:space="preserve">
<style type="text/css">
	.st0{fill:#FFFFFF;}
	.st1{fill:#9D9D9D;}
	.st2{fill:#FFFFFF;}
	.st3{fill:#FFFFFF;}
	.st4{fill:#FFFFFF;}
	.st5{fill:#FFFFFF;}
	.st6{fill:#FFFFFF;}
</style>
<path class="st0" d="M155.7,183c-0.2-0.5-0.5-1-0.9-1.5c-0.4-0.4-0.8-0.8-1.3-1.1c-1-0.6-2.2-0.8-3.3-0.7c-0.6,0.1-1.1,0.2-1.7,0.5
	c-0.5,0.3-1,0.6-1.4,1c-0.4,0.4-0.7,0.9-1,1.4c-0.3,0.5-0.5,1-0.6,1.6l0,0c0,0-8.5-4.1-6.3,0.7c1.6,3.1,3.7,6,6.1,8.5
	c0,0,10-0.2,12.9-1.4c1.6-3,2.9-6.2,3.7-9.6C163,177.4,156.3,182.6,155.7,183"/>
<path class="st1" d="M188.3,317.8c0,1.3,0,2.6-0.1,3.9c-0.2,2.6-0.7,5.2-1.4,7.7c-0.4,1.3-0.8,2.5-1.2,3.7c-0.5,1.2-1,2.4-1.6,3.6
	s-1.2,2.3-2,3.4s-1.5,2.1-2.3,3.2c-2.5,3.1-5.4,5.7-8.6,8c-1.1,0.7-2.2,1.4-3.3,2c-1.2,0.6-2.3,1.2-3.5,1.7c-1.2,0.5-2.4,1-3.7,1.3
	c-1.2,0.4-2.5,0.7-3.8,1c-1.3,0.2-2.6,0.5-3.9,0.6c-1.3,0.1-2.6,0.2-3.9,0.2s-2.6-0.1-3.9-0.2c-1.3-0.1-2.6-0.3-3.9-0.6
	c-1.3-0.3-2.6-0.6-3.8-1c-1.2-0.4-2.5-0.8-3.7-1.3c-1.2-0.5-2.4-1.1-3.5-1.7c-1.1-0.6-2.3-1.3-3.3-2c-1.1-0.7-2.1-1.5-3.1-2.4
	c-1-0.8-2-1.7-2.9-2.6c-0.9-0.9-1.7-1.9-2.5-2.9c-0.8-1-1.6-2.1-2.3-3.2c-0.7-1.1-1.4-2.2-2-3.4c-0.6-1.2-1.1-2.4-1.6-3.6
	s-0.9-2.5-1.3-3.7c-0.4-1.3-0.6-2.5-0.9-3.8c-0.2-1.3-0.4-2.6-0.5-3.9c-0.1-1.3-0.1-2.6-0.1-3.9c0-0.7,0.1-1.4,0.4-2.1
	c0.3-0.7,0.7-1.3,1.2-1.8c2.1-2.1,5.6-2.1,7.7,0c1,1,1.6,2.4,1.6,3.8l0,0c0,0.9,0,1.9,0.1,2.8s0.2,1.9,0.4,2.8
	c0.2,0.9,0.4,1.8,0.7,2.7c0.3,0.9,0.6,1.8,1,2.6c0.3,0.9,0.7,1.7,1.2,2.5c0.4,0.8,0.9,1.6,1.4,2.4c0.5,0.8,1.1,1.5,1.7,2.2
	s1.2,1.4,1.9,2.1s1.3,1.3,2.1,1.9s1.5,1.1,2.2,1.7c0.8,0.5,1.6,1,2.4,1.4c0.8,0.4,1.7,0.8,2.5,1.2s1.8,0.7,2.6,0.9
	c0.9,0.3,1.8,0.5,2.7,0.7c3.7,0.7,7.5,0.7,11.1,0c0.9-0.2,1.8-0.4,2.7-0.7c0.9-0.3,1.8-0.6,2.6-0.9c0.9-0.4,1.7-0.8,2.5-1.2
	c0.8-0.4,1.6-0.9,2.4-1.4c0.8-0.5,1.5-1.1,2.2-1.7s1.4-1.2,2.1-1.9s1.3-1.4,1.9-2.1s1.2-1.5,1.7-2.2c0.5-0.8,1-1.6,1.4-2.4
	c0.4-0.8,0.8-1.7,1.2-2.5c0.4-0.9,0.7-1.7,0.9-2.6c0.3-0.9,0.5-1.8,0.7-2.7c0.4-1.8,0.5-3.7,0.6-5.6l0,0c0-1.4,0.6-2.8,1.6-3.8
	c1.6-1.6,3.9-2,5.9-1.2c0.7,0.3,1.3,0.7,1.8,1.2C187.7,315.1,188.2,316.5,188.3,317.8"/>
<path class="st0" d="M179.1,251.5l-5.2-44.9c-0.2-1-0.8-1.8-1.6-2.3l-18.1-8.7l-6,0.7c0,0-14.6,12.1-14.5,12.1l-0.4,0.4
	c-0.9,0.8-1.2,2.1-1,3.2l5.1,44.3L179.1,251.5L179.1,251.5z"/>
<path class="st2" d="M170.8,193.8c-0.4-3.2-1.1-6.3-2-9.4l-12.9,7.2c-0.3-0.3-0.6-0.5-1-0.8c-0.4-0.2-0.8-0.4-1.1-0.5
	c-0.4-0.1-0.8-0.2-1.2-0.3c-0.4,0-0.8,0-1.3,0c-0.4,0-0.8,0.1-1.2,0.2c-0.8,0.2-1.6,0.7-2.2,1.2c-0.3,0.3-0.6,0.6-0.9,0.9l-13.7-4.4
	c-0.5,3.3-0.6,6.7-0.4,10.1c0.4,3.1,1.2,6.1,2.4,8.9l12-6.8c0.3,0.4,0.7,0.7,1.1,1c0.4,0.3,0.8,0.5,1.3,0.7c0.5,0.2,0.9,0.3,1.4,0.4
	c0.5,0.1,1,0.1,1.5,0c0.5-0.1,1-0.2,1.4-0.3c0.5-0.2,0.9-0.4,1.3-0.7c0.4-0.3,0.8-0.6,1.1-1c0.3-0.4,0.6-0.8,0.9-1.2l13.4,4.4
	C171,200.2,171,197,170.8,193.8"/>
<path class="st3" d="M159.9,262.8c26.4-1.6,51.3-3,62.6-3.7h0.2h0.2h0.6l4.7-18.8c0.4-1.7-0.2-3.4-1.6-4.5c-0.4-0.3-1-0.6-1.5-0.7
	l-57.9-14.6c-0.5-0.1-1.1-0.2-1.7-0.1c-1.7,0.3-3.1,1.5-3.5,3.2l-10,39.6L159.9,262.8"/>
<polyline class="st4" points="196.1,260.7 204.5,230.4 187.8,226.2 178,261.8 196.1,260.7 "/>
<path class="st4" d="M78.6,267.7c0.4-0.1,0.8-0.1,1.2-0.2c13.7-0.8,47.4-2.8,80-4.7l2.1-0.1l-7.4-33.5c-0.1-0.5-0.3-1-0.6-1.5
	c-0.3-0.4-0.7-0.8-1.2-1.1c-0.5-0.3-1-0.5-1.5-0.6c-0.5-0.1-1.1-0.1-1.6,0l-72.5,16c-0.5,0.1-1,0.3-1.5,0.6
	c-0.4,0.3-0.8,0.7-1.1,1.2c-0.3,0.5-0.5,1-0.6,1.5c-0.1,0.5-0.1,1.1,0,1.6L78.6,267.7L78.6,267.7z M218.8,224.8
	c-1.2,1.7-6.5,1.9-12.9,1.3c3.9-3.2,9-6.2,11.5-4C218.8,223,219.1,224.3,218.8,224.8 M178.4,217.5c-0.7-0.6-0.7-1.7-0.2-2.4
	c0.4-0.4,0.9-0.7,1.4-0.9c3.2-0.9,6.7,3.9,8.9,8.4C185,221.4,181.5,219.7,178.4,217.5 M222.2,221.2c-0.5-0.9-1.2-1.7-1.9-2.4
	c-6.5-5.6-16.6,3.1-20,6.4c-0.3-0.5-0.7-1-1.2-1.3c-0.5-0.4-1-0.6-1.6-0.8c-0.6-0.2-1.2-0.2-1.8-0.1c-0.6,0.1-1.2,0.3-1.7,0.6
	c-1.9-4.7-7.4-15.9-15.4-13.6c-1,0.3-1.9,0.8-2.8,1.4c-2.7,2-3,4.1-2.8,5.5c1.1,5.9,14.1,10,18.6,11.3c0.1,0.5,0.2,0.9,0.4,1.4
	c0.4,0.9,1.1,1.6,2,2.1c0.9,0.5,1.8,0.7,2.8,0.6c0.5-0.1,1-0.2,1.4-0.4c0.9-0.4,1.6-1.1,2.1-1.9h0.2c4.3,0.6,18.5,2.4,22-2.7
	C223.3,226.1,223.9,224,222.2,221.2"/>
<polyline class="st1" points="132.2,222.1 132.4,222 132.2,222.1 "/>
<polyline class="st5" points="134.2,264.4 126.8,230.9 100.5,236.8 107,266 134.2,264.4 "/>
<path class="st5" d="M121.3,228.6c1.7-5.5,4.7-11.7,8.5-11.2c0.6,0.1,1.2,0.3,1.7,0.5c0.8,0.4,1.3,0.9,1.3,1.1
	C132.9,221,127.9,225,121.3,228.6 M89.6,229.8c-0.3-0.3-0.4-0.7-0.4-1.2c0-0.4,0.1-0.8,0.4-1.2c0.4-0.5,0.8-0.9,1.3-1.3
	c3.3-2.1,8.8,2.1,12.8,6.4C96.2,232.2,90.8,231.3,89.6,229.8 M134.1,213.1c-1.1-0.6-2.2-0.9-3.4-1.1c-9.4-1.1-13.6,11.9-15.2,18.1
	c-1-0.5-2.1-0.6-3.1-0.4c-0.5,0.1-1,0.3-1.5,0.6c-0.4,0.3-0.8,0.7-1.2,1.1c-4-4.8-13.7-14.9-21.7-9.7c-1,0.7-1.9,1.5-2.6,2.5
	c-2.4,3.2-2,5.6-1.2,7.1c3.2,6.4,20.1,6.5,25.2,6.3h1.2c0.3,0.2,0.5,0.4,0.8,0.5c0.3,0.1,0.6,0.2,0.9,0.3c0.3,0.1,0.7,0.1,1,0.1
	c0.3,0,0.7,0,1-0.1c0.3-0.1,0.6-0.2,0.9-0.3c0.3-0.1,0.6-0.3,0.8-0.5c0.3-0.2,0.5-0.4,0.7-0.6c0.2-0.2,0.4-0.5,0.6-0.8l1.2-0.5
	c4.6-2.1,19.7-9.7,19.8-16.9c0-1.7-0.7-4.1-4.3-5.9"/>
<path class="st6" d="M229.7,418.6c-7.6-34.3-12.6-97.3-1.8-150.4c-0.1-1.3-0.7-2.6-1.6-3.6c-0.5-0.5-1-0.9-1.6-1.1
	c-0.6-0.3-1.3-0.4-1.9-0.5c-25.2,1.5-117.9,7-142.6,8.4c-0.7,0-1.4,0.2-2,0.5c-0.6,0.3-1.2,0.7-1.6,1.2c-0.5,0.5-0.8,1.1-1.1,1.7
	c-0.3,0.6-0.4,1.3-0.4,2c0,0.1,0,0.2,0,0.3c5.6,32.3,7.5,89.2-4,142.1c0,0.6,0.1,1.2,0.4,1.8c0.2,0.6,0.6,1.1,1,1.6
	c0.8,0.9,1.9,1.6,3.1,1.8h149.7c0.6-0.1,1.2-0.3,1.8-0.6c0.6-0.3,1.1-0.7,1.5-1.2c0.8-1,1.3-2.2,1.3-3.5
	C229.7,418.9,229.7,418.8,229.7,418.6"/>
<path class="st1" d="M188.2,318.5c0,1.3-0.1,2.5-0.3,3.8c-0.1,1.2-0.4,2.5-0.6,3.7s-0.6,2.5-1,3.6s-0.8,2.4-1.3,3.5
	s-1.1,2.3-1.7,3.4s-1.3,2.2-2,3.2c-0.7,1-1.5,2-2.3,3c-0.8,1-1.7,1.9-2.6,2.8c-0.9,0.9-1.9,1.7-2.8,2.5c-1,0.8-2,1.5-3.1,2.2
	s-2.1,1.3-3.3,1.9c-1.1,0.6-2.3,1.1-3.4,1.6c-1.2,0.5-2.4,0.9-3.6,1.3c-1.2,0.4-2.4,0.7-3.7,0.9c-1.2,0.2-2.5,0.4-3.8,0.5
	c-1.3,0.1-2.5,0.2-3.8,0.2c-1.3,0-2.5-0.1-3.8-0.2s-2.5-0.3-3.8-0.5s-2.5-0.5-3.7-0.9c-1.2-0.4-2.4-0.8-3.6-1.3
	c-1.2-0.5-2.3-1-3.4-1.6c-1.1-0.6-2.2-1.2-3.3-1.9c-1.1-0.7-2.1-1.4-3.1-2.2s-1.9-1.6-2.8-2.5s-1.8-1.8-2.6-2.8c-0.8-1-1.6-2-2.3-3
	c-0.7-1-1.4-2.1-2-3.2s-1.2-2.2-1.7-3.4s-0.9-2.3-1.3-3.5s-0.7-2.4-1-3.6s-0.5-2.5-0.6-3.7c-0.2-1.2-0.2-2.5-0.3-3.8
	c0-0.7,0.1-1.4,0.4-2.1c0.3-0.7,0.7-1.2,1.2-1.8c0.5-0.5,1.1-0.9,1.8-1.2c2.7-1.1,5.9,0.2,7,2.9c0,0,0,0,0,0
	c0.3,0.7,0.4,1.4,0.4,2.1l0,0c0,0.9,0,1.9,0.1,2.8c0.1,0.9,0.2,1.8,0.4,2.8c0.2,0.9,0.4,1.8,0.7,2.7c0.3,0.9,0.6,1.8,0.9,2.6
	c0.3,0.9,0.8,1.7,1.2,2.5s0.9,1.6,1.4,2.4s1.1,1.5,1.7,2.2c0.6,0.7,1.2,1.4,1.9,2.1c0.7,0.7,1.3,1.3,2.1,1.9s1.5,1.1,2.2,1.7
	c0.8,0.5,1.6,1,2.4,1.4c0.8,0.4,1.6,0.8,2.5,1.2s1.7,0.7,2.6,0.9c0.9,0.3,1.8,0.5,2.7,0.7c0.9,0.2,1.8,0.3,2.8,0.4
	c0.9,0.1,1.9,0.1,2.8,0.1s1.9,0,2.8-0.1s1.8-0.2,2.8-0.4s1.8-0.4,2.7-0.7s1.8-0.6,2.6-0.9c0.9-0.4,1.7-0.8,2.5-1.2
	c0.8-0.4,1.6-0.9,2.4-1.4c0.8-0.5,1.5-1.1,2.2-1.7s1.4-1.2,2.1-1.9s1.3-1.3,1.9-2.1s1.1-1.5,1.7-2.2s1-1.6,1.4-2.4
	c0.4-0.8,0.8-1.7,1.2-2.5c0.4-0.9,0.7-1.7,0.9-2.6c0.3-0.9,0.5-1.8,0.7-2.7s0.3-1.8,0.4-2.8s0.1-1.9,0.1-2.8l0,0
	c0-1.4,0.6-2.8,1.6-3.8c0.5-0.5,1.1-0.9,1.8-1.2c1.3-0.5,2.8-0.5,4.1,0c0.7,0.3,1.2,0.7,1.8,1.2c0.5,0.5,0.9,1.1,1.2,1.8
	C188.1,317.1,188.2,317.8,188.2,318.5 M115.4,302.9c-0.7,0-1.4-0.1-2.1-0.4c-0.7-0.3-1.2-0.6-1.8-1.1c-1.5-1.5-2-3.9-1.2-5.9
	c0.5-1.3,1.6-2.4,2.9-2.9c0.7-0.3,1.4-0.4,2.1-0.4c0.7,0,1.4,0.1,2.1,0.4c0.7,0.3,1.2,0.7,1.8,1.2c0.5,0.5,0.9,1.1,1.2,1.8
	c1.1,2.8-0.2,5.9-3,7.1C116.8,302.8,116.1,302.9,115.4,302.9 M182.8,302.6c-0.7,0-1.5-0.1-2.1-0.4c-0.7-0.3-1.3-0.6-1.8-1.1
	c-0.5-0.5-0.9-1.1-1.2-1.8c-1.2-2.7,0.1-5.9,2.8-7.1c0.7-0.3,1.6-0.5,2.4-0.4c0.7,0,1.4,0.2,2,0.5c0.6,0.3,1.2,0.7,1.7,1.2
	c0.5,0.5,0.9,1.1,1.1,1.7c0.5,1.3,0.5,2.7,0,4C186.8,301.2,184.9,302.5,182.8,302.6"/>
<path class="st6" d="M714,199.7l-0.4,0.6v224.1h2.4c15,0,29.9-7.5,36.2-18.1l0.3-0.5V181.2h-2.4C735.9,181.2,721.7,188.4,714,199.7z
	 M421.8,199.7l-0.4,0.6v224.1h2.4c15,0,29.9-7.5,36.2-18.1l0.3-0.5V181.2H458C443.8,181.2,429.6,188.4,421.8,199.7z M321,277.2
	l-0.5,0l-0.4,0.2c-9.4,5.4-17.5,16-20.5,27.1l-1.3,4.8l4.6-2c5.8-2.6,24.2-2.5,38.8,6.9c12.4,7.9,19.1,20.5,19.3,36.6
	c0,38.3-27.4,46.1-34.8,46.1c-29.2,0-35.8-33.6-35.8-45.4V222.3H288c-14.2,0-27.5,6.7-36,18l-0.5,0.6v109.4
	c0,16.3,6.6,39.6,25.2,56.1c14.2,12.6,29.9,18.5,49.5,18.5c20.4,0,73.3-13.3,73.3-74c-0.2-18.2-5.4-32.9-16.3-46.3
	C363.9,281,332.3,275.8,321,277.2L321,277.2z M483.2,295.8l-0.5,0.6v128.5h2.4c14.1-0.1,27.4-6.4,36.2-17.3l0.5-0.6V277.9h-2.4
	C505.2,277.9,491.8,284.5,483.2,295.8L483.2,295.8z M502.3,222.4c-1.3,0-2.6,0.1-3.8,0.4c-1.3,0.2-2.5,0.6-3.7,1.1
	c-1.2,0.5-2.3,1.1-3.4,1.8c-1.1,0.7-2.1,1.5-3,2.4c-0.9,0.9-1.7,1.9-2.4,3c-0.7,1.1-1.3,2.2-1.8,3.4c-1.5,3.6-1.9,7.5-1.1,11.3
	c0.2,1.3,0.6,2.5,1.1,3.7c0.5,1.2,1.1,2.3,1.8,3.4c1.4,2.1,3.3,4,5.4,5.4c6.6,4.4,15.1,4.4,21.7,0c2.1-1.4,4-3.2,5.4-5.4
	c0.7-1.1,1.3-2.2,1.8-3.4c2-4.8,2-10.2,0-14.9c-0.5-1.2-1.1-2.3-1.8-3.4c-0.7-1.1-1.5-2.1-2.4-3c-0.9-0.9-1.9-1.7-3-2.4
	c-1.1-0.7-2.2-1.3-3.4-1.8c-1.2-0.5-2.4-0.9-3.7-1.1C504.9,222.6,503.6,222.4,502.3,222.4L502.3,222.4z M775.3,295.5l-0.5,0.6v128.5
	h2.4c14.1-0.1,27.3-6.4,36.2-17.3l0.5-0.6V277.6h-2.4C797.4,277.7,784,284.3,775.3,295.5L775.3,295.5z M794.5,261.2
	c2.6,0,5.1-0.5,7.5-1.5c1.2-0.5,2.3-1.1,3.4-1.8c2.1-1.4,4-3.3,5.4-5.4c3.6-5.4,4.3-12.3,1.8-18.3c-0.5-1.2-1.1-2.3-1.8-3.4
	c-2.9-4.3-7.3-7.3-12.4-8.3c-2.5-0.5-5.1-0.5-7.6,0c-1.3,0.3-2.5,0.6-3.7,1.1c-1.2,0.5-2.3,1.1-3.4,1.8c-2.1,1.4-4,3.3-5.4,5.4
	c-4.4,6.6-4.4,15.1,0,21.7c1.4,2.1,3.3,4,5.4,5.4C786.8,260.1,790.6,261.2,794.5,261.2z M613.1,277.2l-0.5,0l-0.4,0.2
	c-9.4,5.4-17.5,16-20.5,27.1l-1.4,4.8l4.6-2c5.8-2.6,24.2-2.5,38.8,6.9c12.4,7.9,19.1,20.5,19.3,36.6c0,38.3-27.4,46.1-34.8,46.1
	c-29.2,0-35.8-33.6-35.8-45.4V222.3h-2.4c-14.2,0-27.5,6.7-36,18l-0.5,0.6v0.8c0,8.5,0,108.6,0,108.6c0,16.3,6.6,39.6,25.2,56.1
	c14.2,12.6,29.9,18.5,49.5,18.5c20.4,0,73.3-13.3,73.3-74c-0.2-18.2-5.3-32.9-16.2-46.3C656,281,624.5,275.8,613.1,277.2
	L613.1,277.2z"/>
</svg>
