<?xml version="1.0" encoding="iso-8859-1"?>
<!-- Uploaded to: SVG Repo, www.svgrepo.com, Generator: SVG Repo Mixer Tools -->
<!DOCTYPE svg PUBLIC "-//W3C//DTD SVG 1.1//EN" "http://www.w3.org/Graphics/SVG/1.1/DTD/svg11.dtd">
<svg height="800px" width="800px" version="1.1" id="Capa_1" xmlns="http://www.w3.org/2000/svg" xmlns:xlink="http://www.w3.org/1999/xlink" 
	 viewBox="0 0 55.858 55.858" xml:space="preserve">
<g>
	<path style="fill:#A2A2A2; opacity: 0.2" d="M50.029,42.569c-2.651,1.023-5.269-1.656-8.124-0.845c-1.56,0.443-2.857,1.489-3.579,2.899
		c-2.021-1.41-3.937-2.919-5.737-4.531c2.132,0.441,4.364,0.608,6.255-0.694c1.924-1.326,2.724-3.704,4.52-5.172
		c0.632-0.517-0.176-1.306-0.8-1.037c-1.694,0.729-5.065-1.211-6.883-0.186c-0.402-2.036-1.544-3.948-2.561-5.742
		c-0.279-0.493-1.063-0.274-1.061,0.288c0.009,3.238-4.221,7.986-1.261,10.87c-2.666-2.601-5.061-5.437-7.155-8.515
		c2.021-0.044,3.732-1.503,4.455-3.481c1.142-3.122-0.576-6.372-2.059-9.053c-0.241-0.436-0.895-0.318-1.031,0.135
		c-0.722,2.394-2.72,4.096-3.26,6.588c-0.192,0.886-0.222,1.754-0.121,2.601c-1.685-2.886-3.145-5.947-4.335-9.203
		c0.008-0.007,0.013-0.016,0.02-0.023c1.706,1.15,4.176,0.422,5.409-1.261c1.992-2.719,0.992-6.276,0.056-9.18
		c-0.152-0.473-1.003-0.591-1.082,0c-0.354,2.629-4.519,4.724-5.463,7.299c-0.135-0.445-0.254-0.902-0.383-1.352
		c0.231-0.149,0.314-0.485,0.003-0.671c-0.073-0.043-0.151-0.077-0.226-0.118c-0.063-0.234-0.137-0.46-0.197-0.697
		c0.008-0.008,0.017-0.01,0.024-0.018c0.049-0.055,0.086-0.113,0.133-0.169c0.252,0.066,0.495-0.158,0.436-0.426
		c-0.007-0.031-0.022-0.059-0.03-0.09c2.774-3.897,0.948-8.945-3.477-10.759c-0.232-0.095-0.537,0.064-0.655,0.266
		c-1.068,1.85-1.742,4.678-1.288,6.982C9.136,6.583,7.413,6.482,5.846,6.598C5.207,6.646,4.967,7.314,5.351,7.793
		c1.713,2.135,2.678,5.186,5.298,6.435c1.42,0.677,3.249,0.761,4.438-0.26c0.389,1.683,0.877,3.352,1.448,4.999
		c-2.113-1.553-5.256-2.063-7.543-1.505c-0.457,0.111-0.709,0.816-0.3,1.136c1.399,1.095,2.282,2.812,3.41,4.23
		c-0.694,1.156-1.623,2.095-2.75,2.88c-0.354,0.246-0.443,0.71-0.134,1.038c2.845,3.02,8.532,2.684,10.052-1.361
		c0.97,1.918,2.055,3.787,3.251,5.588c-2.151-1.384-4.649-2.072-7.274-1.3c-0.542,0.16-0.719,0.837-0.328,1.243
		c1.99,2.07,2.907,4.684,5.862,5.596c1.861,0.575,3.794,0.333,5.42-0.637c1.322,1.576,2.736,3.072,4.223,4.484
		c-3.301-1.081-6.76-0.804-9.976,0.813c-0.45,0.227-0.463,0.848-0.152,1.182c3.508,3.785,9.299,4.154,12.732,0.318
		c1.693,1.406,3.47,2.699,5.319,3.862c-3.472,0.041-4.749,5.799-5.63,8.352c-0.206,0.597,0.416,1.065,0.954,0.954
		c2.308-0.474,4.956-1.076,6.411-3.116c1.079-1.513,1.346-3.586,0.17-5.054c2.522,1.425,5.165,2.608,7.904,3.505
		c0.43,0.141,0.734-0.547,0.313-0.742c-2.664-1.237-5.188-2.617-7.583-4.122c3.617,0.494,7.93,0.685,9.751-2.953
		C50.825,42.983,50.503,42.386,50.029,42.569z M7.18,7.909c1.276,0.015,2.447,0.306,3.74,0.516c0.573,1.358,1.681,2.383,3.555,2.636
		c0.005,0.094,0.031,0.182,0.075,0.263c0.023,0.133,0.053,0.266,0.077,0.398c-0.46-0.186-0.925-0.361-1.368-0.578
		c-0.85-0.415-1.681-0.886-2.489-1.378c-0.299-0.182-0.664,0.263-0.384,0.497c1.235,1.03,2.837,2.197,4.469,2.64
		c0.019,0.093,0.034,0.187,0.054,0.281C11.282,14.746,9.106,10.661,7.18,7.909z M14.742,7.977C14.43,7.053,14.297,6.13,13.877,5.25
		c-0.067-0.141-0.252-0.077-0.299,0.039c-0.523,1.303-0.122,3.483,0.819,4.898c-3.027-2.176-2.852-5.597-1.702-8.846
		c3.287,1.386,4.258,5.09,2.719,8.062C15.168,8.937,14.909,8.472,14.742,7.977z M20.987,10.898c0.554-0.538,1.004-1.111,1.318-1.747
		c0.468,1.545,0.758,3.156,0.262,4.715c-0.756,2.376-3.22,3.52-5.307,1.963c-0.026-0.019-0.051-0.025-0.076-0.037
		c1.736-0.56,3.411-1.85,3.871-3.687c0.132-0.526-0.555-0.785-0.848-0.358c-0.796,1.159-1.646,2.155-2.837,2.839
		C18.059,13.098,19.89,11.962,20.987,10.898z M10.691,26.318c0.911-0.797,1.534-1.735,1.955-2.858
		c0.611,0.651,1.311,1.194,2.2,1.509c0.411,0.146,0.855,0.201,1.296,0.188c-0.055,0.014-0.108,0.034-0.163,0.046
		c-0.872,0.2-1.759,0.273-2.652,0.247c-0.485-0.014-0.461,0.688,0,0.738c1.346,0.148,2.987,0.079,4.298-0.518
		C15.735,27.643,13.007,28.271,10.691,26.318z M18.11,23.086c-0.507-0.312-1.122-0.508-1.612-0.831
		c-0.812-0.536-1.506-1.2-2.074-1.989c-0.156-0.216-0.503-0.027-0.364,0.213c0.498,0.859,1.113,1.656,1.879,2.295
		c0.371,0.31,0.825,0.685,1.31,0.937c-2.118,0.755-4.881-3.096-6.699-5.157c1.453-0.147,2.907,0.155,4.214,0.886
		c1.465,0.82,2.215,2.011,3.226,3.244c0.053,0.122,0.103,0.245,0.157,0.366C18.135,23.065,18.122,23.072,18.11,23.086z
		 M23.952,22.251c0.605-1.105,1.288-2.054,1.745-3.158c0.83,1.537,1.595,3.175,1.627,4.923c0.037,2.004-1.24,4.083-3.183,4.44
		c1.024-1.471,1.812-3.402,1.587-5.122c-0.054-0.409-0.619-0.548-0.756-0.102c-0.278,0.906-0.36,1.857-0.67,2.761
		c-0.289,0.841-0.678,1.629-1.104,2.405C22.67,26.305,22.859,24.245,23.952,22.251z M20.05,34.476
		c-1.403-0.848-2.239-2.322-3.233-3.62c2.993-0.395,5.444,1.339,7.833,3.082c0.052,0.068,0.105,0.136,0.157,0.205
		c-0.632-0.135-1.296-0.158-1.922-0.379c-1.094-0.387-2.044-1.018-2.87-1.829c-0.197-0.194-0.573,0.068-0.397,0.307
		c1.121,1.525,3.769,3.47,5.787,2.682c0.004,0.005,0.007,0.01,0.011,0.015C23.646,35.514,21.701,35.473,20.05,34.476z
		 M35.668,35.948c0.119-0.53,0.164-1.051,0.157-1.565c1.735-0.787,3.427,0.084,5.186,0.256c-0.594,0.699-1.112,1.459-1.715,2.218
		c-1.371,1.725-3.094,2.161-4.996,2.194c0.583-0.394,1.15-0.816,1.716-1.232c0.653-0.48,1.377-0.927,1.914-1.541
		c0.316-0.361-0.076-0.885-0.511-0.663c-0.726,0.37-1.337,0.963-1.961,1.479c-0.09,0.074-0.181,0.148-0.271,0.222
		C35.389,36.885,35.56,36.429,35.668,35.948z M22.188,42.03c2.616-1.089,5.431-1.204,8.119-0.354
		c-1.327,0.113-2.646,0.321-3.995,0.28c-0.468-0.014-0.436,0.65,0,0.707c1.575,0.206,3.389,0.37,4.964-0.065
		C28.322,44.236,24.907,44.201,22.188,42.03z M32.257,38.526c0.003-0.061-0.006-0.121-0.031-0.178
		c0.694-1.038,1.774-2.836,1.364-4.084c-0.069-0.211-0.353-0.256-0.472-0.062c-0.333,0.542-0.326,1.235-0.475,1.846
		c-0.167,0.685-0.423,1.333-0.733,1.963c-1.993-1.833-0.267-4.616,0.575-6.57c0.281-0.652,0.496-1.266,0.626-1.891
		C34.721,32.704,35.763,36.849,32.257,38.526z M38.022,52.673c-0.992,0.753-2.195,1.124-3.41,1.396
		c0.718-2.351,1.612-5.529,3.782-6.399c-0.199,0.413-0.342,0.861-0.535,1.271c-0.316,0.671-0.669,1.332-1.045,1.971
		c-0.15,0.255,0.224,0.568,0.422,0.326c0.492-0.6,0.929-1.218,1.297-1.902c0.191-0.356,0.405-0.744,0.558-1.146
		C40.013,49.746,39.432,51.603,38.022,52.673z M40.26,45.391c0.96-0.628,2.031-1.058,3.139-1.378c0.316-0.091,0.268-0.611-0.08-0.59
		c-1.559,0.093-2.905,0.798-4.013,1.864c-0.032-0.022-0.064-0.044-0.096-0.065c1.467-2.098,3.674-3.016,6.28-2.177
		c1.126,0.362,2.139,0.784,3.208,0.824C46.41,45.729,43.188,45.448,40.26,45.391z"/>
</g>
</svg>